<mxfile host="app.diagrams.net" modified="2024-06-10T06:23:52.507Z" agent="Mozilla/5.0 (Windows NT 10.0; Win64; x64) AppleWebKit/537.36 (KHTML, like Gecko) Chrome/125.0.0.0 Safari/537.36" etag="uKd2o6tWsl_WkwSd-9Pe" version="24.5.2" type="onedrive">
  <diagram name="Halaman-1" id="_gqbVuaYy3FFYrxtBCHO">
    <mxGraphModel grid="1" page="1" gridSize="10" guides="1" tooltips="1" connect="1" arrows="1" fold="1" pageScale="1" pageWidth="827" pageHeight="1169" math="0" shadow="0">
      <root>
        <mxCell id="0" />
        <mxCell id="1" parent="0" />
        <mxCell id="BdPa3Eqroh7XSUmr9nD--1" style="edgeStyle=orthogonalEdgeStyle;rounded=0;orthogonalLoop=1;jettySize=auto;html=1;exitX=0.75;exitY=0;exitDx=0;exitDy=0;entryX=0;entryY=0;entryDx=0;entryDy=0;" edge="1" parent="1" source="BdPa3Eqroh7XSUmr9nD--3" target="BdPa3Eqroh7XSUmr9nD--5">
          <mxGeometry relative="1" as="geometry">
            <Array as="points">
              <mxPoint x="250" y="190" />
              <mxPoint x="372" y="190" />
            </Array>
          </mxGeometry>
        </mxCell>
        <mxCell id="BdPa3Eqroh7XSUmr9nD--2" style="edgeStyle=orthogonalEdgeStyle;rounded=0;orthogonalLoop=1;jettySize=auto;html=1;exitX=0.5;exitY=0;exitDx=0;exitDy=0;entryX=0.5;entryY=0;entryDx=0;entryDy=0;" edge="1" parent="1" source="BdPa3Eqroh7XSUmr9nD--3" target="BdPa3Eqroh7XSUmr9nD--5">
          <mxGeometry relative="1" as="geometry">
            <Array as="points">
              <mxPoint x="220" y="150" />
              <mxPoint x="400" y="150" />
            </Array>
          </mxGeometry>
        </mxCell>
        <mxCell id="BdPa3Eqroh7XSUmr9nD--3" value="pengguna" style="rounded=0;whiteSpace=wrap;html=1;" vertex="1" parent="1">
          <mxGeometry x="160" y="210" width="120" height="60" as="geometry" />
        </mxCell>
        <mxCell id="BdPa3Eqroh7XSUmr9nD--4" style="edgeStyle=orthogonalEdgeStyle;rounded=0;orthogonalLoop=1;jettySize=auto;html=1;entryX=0.5;entryY=1;entryDx=0;entryDy=0;" edge="1" parent="1" source="BdPa3Eqroh7XSUmr9nD--5" target="BdPa3Eqroh7XSUmr9nD--3">
          <mxGeometry relative="1" as="geometry">
            <Array as="points">
              <mxPoint x="400" y="300" />
              <mxPoint x="220" y="300" />
            </Array>
          </mxGeometry>
        </mxCell>
        <mxCell id="BdPa3Eqroh7XSUmr9nD--5" value="program" style="ellipse;whiteSpace=wrap;html=1;aspect=fixed;" vertex="1" parent="1">
          <mxGeometry x="360" y="200" width="80" height="80" as="geometry" />
        </mxCell>
        <mxCell id="BdPa3Eqroh7XSUmr9nD--6" value="struct riwayat medis pasien" style="text;html=1;align=center;verticalAlign=middle;whiteSpace=wrap;rounded=0;" vertex="1" parent="1">
          <mxGeometry x="250" y="160" width="120" height="30" as="geometry" />
        </mxCell>
        <mxCell id="BdPa3Eqroh7XSUmr9nD--7" value="ukuran struct riwayat medis pasien" style="text;html=1;align=center;verticalAlign=middle;whiteSpace=wrap;rounded=0;" vertex="1" parent="1">
          <mxGeometry x="220" y="120" width="180" height="30" as="geometry" />
        </mxCell>
        <mxCell id="BdPa3Eqroh7XSUmr9nD--8" value="rincian riwayat medis pasien" style="text;html=1;align=center;verticalAlign=middle;whiteSpace=wrap;rounded=0;" vertex="1" parent="1">
          <mxGeometry x="220" y="300" width="180" height="30" as="geometry" />
        </mxCell>
      </root>
    </mxGraphModel>
  </diagram>
</mxfile>
